# xmcd CD database file
#
# Track frame offsets:
#	150
#	26073
#	46578
#	63116
#	77799
#	94468
#	110803
#	137160
#	158393
#	177945
#	192984
#	216018
#
# Disc length: 3123 seconds
#
# Revision: 3
# Processed by: cddbd v1.5.2PL0 Copyright (c) Steve Scherf et al.
# Submitted via: CDex 1.70beta2
#
DISCID=9e0c310c
DTITLE=JASMINE - Complexxx
DYEAR=2013
DGENRE=JPop
TTITLE0=High Flying
TTITLE1=Best Partner
TTITLE2=Addiction
TTITLE3=Touch me on the Beach
TTITLE4=B*TCH*S
TTITLE5=I Hate You
TTITLE6=Weekend High
TTITLE7=ONLY YOU
TTITLE8=Realize
TTITLE9=ONE
TTITLE10=HERO
TTITLE11=I’ll be there
EXTD=YEAR: 2013
EXTT0=
EXTT1=
EXTT2=
EXTT3=
EXTT4=
EXTT5=
EXTT6=
EXTT7=
EXTT8=
EXTT9=
EXTT10=
EXTT11=
PLAYORDER=
